<?xml version="1.0" standalone="no"?>
<!DOCTYPE svg PUBLIC "-//W3C//DTD SVG 20010904//EN"
 "http://www.w3.org/TR/2001/REC-SVG-20010904/DTD/svg10.dtd">
<svg version="1.0" xmlns="http://www.w3.org/2000/svg"
 width="154.000000pt" height="152.000000pt" viewBox="0 0 154.000000 152.000000"
 preserveAspectRatio="xMidYMid meet">
<metadata>
Created by potrace 1.15, written by Peter Selinger 2001-2017
</metadata>
<g transform="translate(0.000000,152.000000) scale(0.100000,-0.100000)"
fill="#000000" stroke="none">
<path d="M0 760 l0 -760 770 0 770 0 0 760 0 760 -770 0 -770 0 0 -760z m861
631 c37 -37 38 -79 4 -119 -37 -45 -33 -70 13 -77 163 -26 259 -71 353 -164
75 -76 107 -136 116 -221 5 -51 3 -60 -10 -60 -11 0 -19 17 -27 58 -34 177
-173 303 -378 347 -40 8 -77 15 -82 15 -5 0 -10 -21 -12 -46 -6 -87 -70 -88
-76 -2 l-3 45 -72 -13 c-97 -19 -201 -71 -266 -135 -63 -63 -95 -122 -111
-207 -10 -49 -16 -62 -31 -62 -15 0 -17 6 -13 41 24 200 210 368 439 398 43 5
50 9 53 29 2 14 -5 33 -18 47 -11 12 -23 38 -27 58 -5 31 -1 40 25 67 41 40
83 41 123 1z m-182 -596 c67 -57 82 -222 28 -304 l-27 -41 -86 0 -85 0 -19 43
c-27 57 -27 167 0 222 25 53 41 71 76 90 42 22 78 18 113 -10z m395 0 c70 -46
100 -202 58 -299 l-21 -46 -85 0 -86 0 -27 42 c-25 37 -28 50 -28 127 0 65 5
96 19 125 36 72 106 93 170 51z m306 -370 c0 -38 -32 -75 -64 -75 -13 0 -29
-6 -35 -14 -15 -18 -70 -26 -98 -13 -27 12 -31 58 -8 77 21 18 92 14 111 -5 9
-9 23 -14 31 -11 8 3 17 6 19 6 2 0 4 15 4 33 0 26 4 33 20 33 16 0 20 -7 20
-31z"/>
<path d="M575 741 c-32 -13 -53 -43 -63 -86 -12 -56 1 -105 37 -137 55 -49
128 -31 157 38 45 108 -36 223 -131 185z"/>
<path d="M951 724 c-88 -74 -49 -234 57 -234 105 0 147 162 61 234 -39 33 -79
33 -118 0z"/>
</g>
</svg>
